<?xml version="1.0"?>
<svg xmlns="http://www.w3.org/2000/svg" version="1.2" baseProfile="tiny" width="800" height="797" viewBox="0 0 800 797" stroke-linecap="round" stroke-linejoin="round">
<g id="countries">
<path d="M 171.07 148.13 173.31 147.7 174.06 147.05 175.18 146.62 175.18 145.97 175.55 144.45 176.67 142.93 177.42 143.15 178.54 141.85 179.29 142.06 181.53 141.2 182.28 140.98 182.65 139.9 185.27 138.16 187.51 138.81 189.38 138.16 190.13 138.38 190.5 137.73 192.37 137.73 193.49 136.86 194.61 137.08 195.36 135.78 196.48 133.83 197.23 133.83 197.6 132.53 196.86 132.1 196.11 130.58 195.36 130.15 193.49 129.06 192.74 128.41 190.88 128.2 190.13 127.33 188.26 126.46 187.89 127.11 186.02 127.76 182.28 126.25 181.9 126.9 179.29 126.9 178.54 126.46 178.91 125.38 178.17 124.95 177.42 123.43 177.79 122.78 178.91 121.7 177.79 120.83 177.79 119.96 179.29 117.58 179.29 116.93 177.42 117.8 177.42 118.66 176.3 119.31 174.43 119.53 173.31 119.1 172.56 118.45 171.44 118.45 170.69 119.1 169.57 118.88 168.45 118.23 168.45 117.36 166.21 116.71 165.83 116.06 161.72 114.98 161.72 114.55 159.85 114.33 159.1 113.46 157.61 112.6 155.37 112.6 155.37 113.25 153.12 111.73 153.12 111.08 152 110.21 150.13 110.21 150.13 109.34 150.51 108.91 150.88 107.18 149.39 105.88 149.39 104.58 149.01 103.71 148.27 103.28 148.27 101.98 149.01 101.33 149.76 99.81 149.76 96.99 148.64 95.69 148.27 94.39 149.01 93.53 149.01 92.01 147.89 91.36 149.01 88.11 147.89 87.03 146.77 85.29 146.02 81.61 146.4 79.44 145.65 78.57 144.9 76.41 143.78 75.76 144.53 73.59 144.15 72.51 144.9 69.91 147.52 69.69 147.89 69.26 149.39 69.26 150.51 69.91 150.51 68.82 151.63 67.74 150.88 66.87 152 65.57 152.38 64.49 153.5 63.62 155.37 63.62 155.37 63.19 157.24 62.97 158.73 62.54 159.1 61.67 160.6 61.46 161.35 61.02 160.97 60.16 162.1 59.72 161.72 57.99 162.84 57.56 162.1 56.47 162.84 55.39 163.59 54.96 162.1 53.87 160.97 54.09 159.85 53.01 158.73 53.44 157.98 52.36 156.49 52.36 154.62 51.49 153.87 51.49 152.75 52.36 152 51.92 152.38 50.62 151.63 49.32 151.63 47.8 152.75 46.5 154.25 45.64 153.87 43.69 152.75 43.69 152.38 43.04 151.26 43.25 149.76 42.39 147.89 43.04 147.52 42.6 146.02 42.39 143.78 42.82 142.66 41.74 140.79 41.3 139.67 40.87 138.55 39.79 136.68 38.7 136.3 38.27 136.3 36.54 136.68 35.24 135.18 34.15 133.69 34.8 132.19 34.59 129.95 35.02 129.95 34.15 127.33 34.59 126.21 35.24 125.09 34.8 123.97 35.67 122.48 34.59 121.35 34.59 120.61 33.5 119.49 33.29 119.49 32.42 119.86 31.99 121.35 30.04 120.98 29.39 119.49 28.95 119.49 28.09 120.61 27 120.23 25.92 120.98 24.62 121.35 23.75 122.48 23.32 123.6 23.75 124.72 23.32 125.47 22.67 127.33 21.8 127.33 21.15 129.2 20.29 129.2 19.42 128.83 18.99 129.95 18.12 131.07 17.9 132.57 16.82 134.06 16.17 135.56 14 134.81 13.57 134.81 12.48 137.05 11.4 138.55 11.83 142.29 11.18 142.29 10.75 143.78 10.75 146.77 11.4 148.64 10.97 148.64 11.62 151.26 12.05 152 11.18 153.87 11.62 154.62 11.18 156.49 11.62 156.86 10.32 155.74 9.02 154.62 9.02 152 7.93 152 7.28 150.88 6.63 150.88 5.77 152.75 6.2 154.99 5.98 157.61 6.63 159.48 8.15 160.23 7.93 161.35 8.58 162.47 7.72 163.59 7.5 164.34 5.77 166.95 6.42 168.82 5.33 170.32 4.25 172.19 3.38 174.43 3.6 174.8 4.47 175.55 4.47 176.3 1.87 177.42 1.65 178.54 1 179.29 1.65 180.41 2.73 181.53 2.3 183.03 2.52 182.65 3.38 184.9 5.55 186.02 4.68 187.89 3.6 190.13 4.47 191.62 3.82 193.12 2.08 196.11 1.65 196.86 2.08 196.86 3.82 198.35 3.82 199.1 4.68 198.35 5.98 199.47 6.42 199.85 8.15 200.59 8.37 203.96 9.45 205.45 10.97 207.7 14.22 209.19 15.3 210.69 15.52 213.3 16.82 215.92 17.25 217.79 18.12 219.28 19.64 220.03 19.85 222.27 20.94 224.14 20.72 226.38 22.24 226.76 23.32 227.88 24.62 229.75 25.27 230.12 25.7 231.62 25.92 232.36 25.27 233.86 27 234.23 28.09 236.1 28.74 236.85 29.6 234.61 31.99 236.1 33.29 236.85 34.8 237.97 35.24 240.21 36.54 242.08 36.75 243.2 36.75 245.07 36.32 246.19 37.19 246.94 38.05 247.69 38.05 248.44 38.7 250.68 38.92 251.8 38.49 254.04 40 254.04 41.52 254.79 42.17 254.79 43.9 253.67 43.9 252.55 43.25 251.05 43.47 252.55 44.99 254.04 45.42 255.54 44.99 258.9 45.42 261.89 44.99 261.89 43.69 263.39 44.77 264.51 44.12 265.63 45.2 266.75 45.42 268.25 42.39 268.99 41.95 270.86 42.17 271.24 42.82 273.1 43.47 273.85 43.04 273.48 42.17 274.6 41.09 274.97 39.79 276.1 40.44 276.84 39.79 276.84 38.49 278.34 38.49 280.21 37.84 281.33 36.54 283.94 37.19 285.81 35.89 286.93 35.67 287.68 34.8 290.67 34.37 291.42 34.59 294.41 34.37 295.9 33.72 297.4 34.8 300.39 35.24 301.14 35.24 302.26 34.15 302.26 32.64 302.26 31.99 303.38 31.12 307.49 30.9 307.87 31.12 308.61 33.5 311.23 33.94 313.47 35.02 314.97 35.24 316.84 36.32 320.57 36.97 322.82 35.45 324.31 35.45 325.06 36.1 325.81 38.27 326.55 38.7 327.3 40 329.54 40.65 332.16 41.95 333.28 45.42 331.79 46.72 331.79 48.45 330.67 51.27 330.29 52.36 328.8 54.52 328.8 57.77 327.3 61.46 325.81 63.41 325.81 66.22 325.06 66.66 323.19 66.87 322.44 67.31 320.57 66.87 319.08 67.96 317.58 68.61 318.33 69.47 317.58 70.56 319.08 71.21 318.7 72.07 317.96 72.51 314.97 72.51 314.22 72.29 312.35 72.29 310.86 72.72 310.86 74.02 311.98 74.24 311.98 76.62 312.72 77.71 312.72 78.79 311.23 80.09 310.11 80.31 310.11 81.83 309.36 82.69 307.87 83.34 307.87 84.21 308.61 84.64 307.87 85.29 306.74 84.64 304.13 84.64 303.01 83.99 302.26 84.21 300.39 83.78 300.39 84.86 298.9 85.08 296.65 84.43 293.66 76.62 291.05 98.73 302.63 112.6 301.89 126.46 282.08 123.21 288.8 153.33 316.46 170.45 353.84 189.3 337.02 201.87 326.18 227.22 352.72 237.84 378.51 251.28 413.64 266.44 451.02 270.13 466.72 284 488.4 286.38 520.91 292.88 543.34 292.45 547.45 281.83 543.34 264.28 545.58 252.58 562.03 246.73 564.27 268.39 565.02 273.81 589.69 284 607.26 279.88 630.06 281.83 652.48 280.75 654.35 264.28 642.76 255.39 665.19 251.71 689.86 231.34 721.26 214.22 744.06 220.72 763.49 209.67 776.57 226.36 767.6 237.84 797.13 241.96 799 252.14 789.28 257.34 791.15 273.81 772.46 269.26 736.95 288.11 736.95 303.5 722.38 326.47 721.26 339.9 708.55 362.22 687.99 356.15 686.87 384.32 680.14 393.64 683.13 405.13 669.3 411.63 655.47 368.72 647.62 368.72 643.89 386.27 627.81 371.76 636.78 356.15 648.74 354.85 661.45 331.67 645.75 327.12 619.96 327.55 594.55 323.87 592.68 304.8 578.85 303.5 557.17 291.36 548.2 310 568.01 324.3 550.44 334.48 544.46 344.67 561.28 352.04 556.42 368.07 566.14 388.87 569.88 411.63 566.14 421.38 547.45 420.94 513.81 426.79 516.06 447.16 501.1 463.42 461.86 481.83 431.58 513.69 410.65 531.24 383.37 548.79 383.37 561.36 370.66 568.29 344.87 578.04 333.28 579.34 324.31 600.15 330.29 635.68 331.04 658.44 320.2 684.22 320.2 730.81 305.62 731.89 293.66 753.13 301.89 761.8 277.22 769.6 267.12 788.23 256.66 796.03 230.87 770.68 218.16 732.33 207.32 704.59 198.35 691.59 183.77 665.8 177.05 631.57 171.81 614.45 147.52 576.96 135.56 523.87 127.71 489.2 127.71 456.05 122.85 430.48 82.48 446.73 63.79 443.48 28.66 410.76 41.37 400.58 33.52 389.96 1 366.77 19.69 348.35 79.49 348.79 73.51 325.17 58.93 311.3 55.2 290.06 37.26 278.15 67.9 249.33 99.3 251.28 127.71 223.11 145.28 195.37 171.81 167.63 171.07 148.13 Z" id="IND"/>
</g>
</svg>