<?xml version="1.0" encoding="UTF-8"?>
<svg id="Layer_2" data-name="Layer 2" xmlns="http://www.w3.org/2000/svg" viewBox="0 0 626.67 684.44">
  <g id="Layer_1-2" data-name="Layer 1">
    <path d="M436.07,299.83l-3.9,5.62c-3.5.09-4.6,1.39-5.9,4.82-1.95,5.18,9.69,7.28,13.08,10.52,3.63,3.47.43,7.87-1.98,11.01-1.44,1.88,1.87,5.56,2.51,7.47,1.01,3.06,2.34,5.43,5.14,7.28-1.28,8.58.28,17.31,3.2,25.98l-.16,8.39c-1.92-.32-4.01-.9-4.79-.34-1.02.72-2.54,1.92-3.43,2.37-1.07.54-3.57-.81-5.01-1.71l-4.6.42-1.77-6.97-28.24,16.12,3.07,13.56c-11.49,6.7-15.4,26.28-30.68,20.71l-1.79-2.13c-.49-.58-2.81.42-3.17,1.09l-3.44,6.48c-6.46,12.18-16.55,22.91-28.31,30.28-5.3,3.32-8.6,5.81-12.17,11.78-1.51,2.52-7.12,4.59-9.91,6.32l-8.84,5.44c-4.19,13.41-.76,7.03-10.48,17.48-4.4.12-10.81-.36-13.78,2.96l-8.44,9.45c-3.05-1.27-10.57-.59-11.99,2.13l-5.66,10.75c-.19,10.64,1.71,20.99,3.55,32l-2.95,5.47,5.58,5.81c-4.44,28.01-3.78,11.71-11.24,28.7-3.13,7.13-.99,11.49.04,23.33.31,3.6,2.99,10.4-1.17,13.31-2.71.16-9.11-.37-10.84,1.8-1.34,12.53-11.59,12.13-5.05,20.94-8.15.99-19.48,2.95-20.71,14.89-.55,5.36-7.39,13.77-14.12,10.21-6.19-3.27-11.88-11.9-17.51-16.95-6.29-5.64-4.82-13.76-6.64-20.66-2.86-10.84-8.03-21.72-12.77-32.99-4.61-10.98-14.4-19.55-18.46-31.58-2.19-6.5-.79-15.29-4.2-21.19-3.74-6.46-4.94-13.09-7.83-19.62-4.04-9.12-12.77-17.61-14.4-27.8-6.66-.76-9.89-31.1-10.66-37.33-1.18-9.55-2.83-19.18-5.15-28.01l3.21-5.53-3.84-.53-2.07-12.07c-.79-4.62-1.48-10.36-.26-14.93,1.78-6.71,7.3-19.7-.91-21.23l1.24-10.7c-1.93-2.05-2.44-3.91-2.2-6.2-.59-.64-3.29-2.8-2.72-3.73l3.13-5.13c-3.66-1.14-6.71,2.1-7.61,5.77l-5.14,21.01-28.37,10.49c-5.77-1.52-42.16-37.88-37.38-39.47l2.21-.73c.53-.18,1.12,1.54,1.69,3.06,7.41-1.18,15.98-2.86,22.7-7.51l4.78-9.4c1.02-1.89-15.64,4.93-17.86,5.56-6.76,1.91-14.19-3.73-17.69-8.2l-7.33-9.34,4.1-6.33c-2.64-1.54-4.93.55-6.47,3.25l-1.16,2.04c-.25.44-2.05-.32-2.1-.83-.26-2.68,1.43-6.66,3.77-8.42,1.42-1.07,4.23-.86,7.37-.53l.8-5.97c7.77-1.13,15.54-1.01,23.64.32s9.15-8.17,15.16-2.5c1.14,1.07,2.96,2.34,4.07,2.18s3.27-2.18,3.58-3.41l2.55-10.16c-5.94-6.51-8.4-13.72-8.92-21.58-2.16.44-4.34.92-5.61.96-1.75.05-5.83-5.97-6.54-7.6-.97-2.25,4.1-5.85,2.59-11.37-1.19-4.36-12.59-1.98-14.81-8.98,2.74-8.46,12.74-26.43,21.69-29.05,2.41,3.14,4.61,6.13,7.22,8.19,7.33-3.23,14.1-5.34,21.7-6.41,5.94-13.78,18.1-23.66,29.06-34.19l4.1-13.82c2.48-2.44,8.63-4.11,11.62-5.36l-.21-7.63c20.26-15.96,11.56-17.94,11.93-19.19.24-.83,1.36-2.67,1.42-3.58l.58-8.69c.67-9.98,16.6-10.31,17.09-13.64-1.29-2.27-4.27-6.1-6.25-6.02l-8.23.33-2.42-9.48-5.06,1.69-15.59-8.88c-.47-12.64-4.48-23.68-4.6-34.65l9.05-8.3c2.73-2.51,6.16-6.25,3.87-10.16l-6.96-2.97,1.18-6.58c-6.83,1.04-11.74-2.81-15.05-8.92-2.73.24-7.13,1.09-9.69-.13-2.16-1.03-2.19-7.63-.29-9.08,4.73-3.59,9.45-7.7,12-13.26h11.66c.71.01,3.33-.86,3.08-1.5l-1.52-3.91c15.91,6.55,16.6-10.8,24.79-1.86,2.91-.32,7.36-.68,10.12.49l1.19,5.75c3.54-.17,10.46.33,11.1,5.18.51,3.86.54,8.63.83,12.36l4.9,5.19c9.07,2.72,17.52,6.29,26.04,11.04l7.46-1.51c6.95,5.34,12.55-14.42,33.79-11.69,6.36,7.72,10.62,5.03,14.95,13.18l4.55-.1c.77-.02,2.27,1.38,2.34,2.15s-1.18,2.22-1.44,3.05l-4.86,15.6-4.96,2.84-5.29,4.49-4.56,10.09c-3.55-.07-8.47.32-9.26,2.98l2.03,4.79c.45,1.05-1.55,2.94-2.49,4.37.23,1.93,2.16,5.89,3.4,7.66l7.19,1.74c-1.23,5.69-1,9.07,3.21,12.74-2.32,4.24-12.47,9.02-15.95,6.53-1.07-.77-1.5-3.26-2.15-5.71l-5.22,1.33c-1.2,5.91,1.3,11.17,5.33,15.45,2,2.12.69,10.3.61,16.09-.01.78,2.33,2.17,2.93,1.67l3.36-2.82,8.52,9.69,9.4.9,5.88,6.61c2.02,2.27,3.97,5.5,6.95,6.69l12.43,4.96-14.21,11.97c-1.23,7.36-2.74,13.85-6.93,20.3l6.29,7.28c4.18-1.29,4.61,0,7.14,2.13,6.76,5.69,14.51,10.05,22.07,14.74l2.81,1.74c.75.47,2.33-.86,3.75-1.65l8.05,6.71,4.48-.92c5.28,2.72,10.42,5.94,15.3,9.28l1.46-3.97c.65-1.75,9.71,2.98,16.15.48,2.38,1.19,5.88,2.73,8.69,3.72l3.14,1.1c.7.24-.84,3.44-.39,4.17,3.21,5.29,13.55,8.32,20.3,5.28l3.11,6.45c12.87-1.64,17.74,5.57,26.91,1.11,1.64,1.5,4.23,3.63,6.01,4.49,5.67-1.92,11.21-1.81,16.97-.86l.89-10.88c-3.47-10.12-3-17.49.26-26.75,4.27-.89,7.31-1.74,10.75-2.85,6.74-2.18,3.98,16.31,4.17,23.46.13,4.76,9.67,8.88,14.09,8.67,6.54-.32,12.27-1.74,18.51-3.24l4.92,2.25c11.3.69,21.84.03,33.01-2.35l-2.2-6.37,1.48-3.58c.71-1.72-10.17-2.68-11.08-9.04,7.19-2.02,14.04-3.18,20.56-5.44,8.22-2.85,10.88-13.37,17.48-17.41,5.92-3.62,13.89-2.36,18.54-9.97,1.65-2.7,6.57-5.47,9.76-6.86,6.8,10.33,21.76-.22,30.44-3.76l3.5,6.1-1.79,4.57c2.08-.17,3.85-.4,5.01-.36,1.81.05,4.29,4.7,3.37,6.24l-4.63,7.68,20.35,4.73,1.97,8.66-10.74,7.56,4.24,11.67c-3.62-1.24-5.24-2.78-7.98-5.05-4.44.89-10.3,2.36-14.93,3.88-7.61,6.71-7.72,11.82-19.17,13.54.45,6.6.6,13.64-1.47,19.89l-9.49,9.85c-1.61,1.67,1.05,5.25,3.25,6.62-3.61,9.87-8.48,20.25-13.56,29.71-5.93-2.24-10.95-3.8-16.52-5.12,1.43,5.62,1.84,25.05-1.4,24.6l-2.86-.4.9,16.82-6.53,7.59c-1.08-1.16-2.43-3.1-3.22-2.74l-3.36,1.52c-.93-18.12-7.09-22.42-7.49-38.52l-6.19-.09c-.51,6.29-2.05,13.24-7.75,16.21l-2.08-3.53c-.45-.77-2.64-.15-4.05.11l-3.39-12.94,2.79-6.83c2.04-4.99,9.77.48,16.48-9.53l9.07-13.54c-11.81-11.93-52.72,3.25-57.97-10.74,1.6-4.32,1.97-17.92-2.26-16.39-.9.33-1.63,1.28-3.06,3.14l-11.3-7.01c-4.29-2.66-8.18-4.95-12.77-7.37l.58,5.72c.11,1.11-1.72,2.68-3.12,3.41-2.76,1.43-5.76,7.12-2.89,9.14,4.47,3.14,11.26,4.23,13.94,8.97l2.57,4.54-8.9,1.64Z"/>
  </g>
</svg>